<?xml version="1.0" encoding="UTF-8"?>
<!DOCTYPE svg PUBLIC "-//W3C//DTD SVG 1.1//EN" "http://www.w3.org/Graphics/SVG/1.1/DTD/svg11.dtd">
<!-- Creator: CorelDRAW 2020 (64-Bit) -->
<svg xmlns="http://www.w3.org/2000/svg" xml:space="preserve" width="100px" height="84px" version="1.1" style="shape-rendering:geometricPrecision; text-rendering:geometricPrecision; image-rendering:optimizeQuality; fill-rule:evenodd; clip-rule:evenodd"
viewBox="0 0 77.44 65.26"
 xmlns:xlink="http://www.w3.org/1999/xlink"
 xmlns:xodm="http://www.corel.com/coreldraw/odm/2003">
 <defs>
  <style type="text/css">
   <![CDATA[
    .fil0 {fill:#2B2A29;fill-rule:nonzero}
   ]]>
  </style>
 </defs>
 <g id="Livello_x0020_1">
  <metadata id="CorelCorpID_0Corel-Layer"/>
  <path class="fil0" d="M65.34 44.08l-51.69 -0.01 0 -22.89 5.85 0 -0.01 14.71 17.55 -14.71 8.51 0 -20.27 17.13 40.06 -0.01 0 5.78zm-20.37 21.18l32.47 0 0 -18.33 -4.92 0 0 13.44 -27.55 0 0 4.89zm0 -65.26l32.47 0 0 18.33 -4.92 0 0 -13.44 -27.55 0 0 -4.89zm-12.5 65.26l-32.47 0 0 -18.33 4.92 0 0 13.44 27.55 0 0 4.89zm0 -65.26l-32.47 0 0 18.33 4.92 0 0 -13.44 27.55 0 0 -4.89z"/>
 </g>
</svg>
