<?xml version="1.0" encoding="UTF-8"?>
<!DOCTYPE svg PUBLIC "-//W3C//DTD SVG 1.1//EN" "http://www.w3.org/Graphics/SVG/1.1/DTD/svg11.dtd">
<!-- Creator: CorelDRAW 2020 (64-Bit) -->
<svg xmlns="http://www.w3.org/2000/svg" xml:space="preserve" version="1.1" style="shape-rendering:geometricPrecision; text-rendering:geometricPrecision; image-rendering:optimizeQuality; fill-rule:evenodd; clip-rule:evenodd"
viewBox="0 0 8072.3 2494.96"
 xmlns:xlink="http://www.w3.org/1999/xlink"
 xmlns:xodm="http://www.corel.com/coreldraw/odm/2003">
 <g id="Livello_x0020_1">
  <metadata id="CorelCorpID_0Corel-Layer"/>
  <path d="M7511.75 2398.11l0 -487.43 74.47 0 0 438.51c0,47.67 -8.31,83.69 -24.85,108.01 -17.16,25.17 -42.71,37.78 -76.7,37.78l-923.67 0c-31.97,0 -56.04,-12.67 -72.12,-37.97 -15.47,-24.3 -23.2,-60.26 -23.2,-107.82l0 -438.51 74.28 0 0 487.81c0,5.68 2.82,11.23 7.06,15.42 4.26,4.22 9.85,6.99 15.32,7.12l916.7 -0.04c9.24,0.04 18.16,-2.48 24.41,-7.2 5.04,-3.77 8.28,-9.09 8.31,-15.68zm-2517.63 96.63l-1112.24 0 0 -581.93 1119.3 0 0 74.3 -1044.84 0 0 199.65 1044.8 0 0.19 75 -1044.84 0 0.59 158.65 1044.97 0 -1 74.32 -6.93 0zm-3881.89 0.23l-1112.24 0 0 -581.95 1119.32 0 0 74.3 -1044.87 0 0 199.67 1044.82 0 0.19 75 -1044.84 0 0.57 158.63 1044.97 0 -0.97 74.35 -6.95 0zm1293.88 0l-1112.24 0 0 -581.95 74.39 0 -0.47 507.24 1044.82 0 0.57 74.71 -7.08 0zm1293.88 0l-1111.65 0 0 -581.95 74.3 0.4 0 507.45 1047.24 -0.34 -3.14 74.43 -6.76 0zm2503.71 -583.96l100.32 -0.04 -559.45 582.29 -66.34 0c-170.79,-194.2 -341.58,-388.42 -512.47,-582.54l109.56 -0.02 435.95 500.69 489.42 -500.36 3.01 -0.02z"/>
  <polygon points="4364.3,945.86 3255.15,945.65 3255.21,454.42 3380.79,454.42 3380.39,770.15 3756.95,454.42 3939.71,454.42 3504.76,821.96 4364.3,821.89 "/>
  <polygon points="3658.96,0.04 2962.28,0.04 2962.28,393.3 3067.86,393.36 3067.88,105.02 3658.96,105.02 "/>
  <polygon points="3658.96,1400.3 2962.28,1400.3 2962.28,1007.03 3067.86,1006.96 3067.88,1295.3 3658.96,1295.3 "/>
  <polygon points="3927.27,0.02 4623.93,0.02 4623.93,393.3 4518.35,393.36 4518.35,105.02 3927.27,105.02 "/>
  <polygon points="3927.27,1400.3 4623.93,1400.3 4623.93,1007.03 4518.35,1006.96 4518.35,1295.3 3927.27,1295.3 "/>
  <path d="M7903.31 1695.78c28.39,0 56.08,7.27 83.16,21.89 26.99,14.53 48.12,35.4 63.18,62.48 15.06,27.16 22.65,55.47 22.65,84.83 0,29.15 -7.44,57.23 -22.35,84.07 -14.83,26.93 -35.64,47.8 -62.48,62.65 -26.87,14.92 -54.94,22.33 -84.16,22.33 -29.28,0 -57.35,-7.42 -84.22,-22.33 -26.84,-14.85 -47.71,-35.72 -62.65,-62.65 -14.92,-26.84 -22.39,-54.92 -22.39,-84.07 0,-29.37 7.56,-57.67 22.71,-84.83 15.21,-27.08 36.34,-47.95 63.33,-62.48 27.08,-14.62 54.77,-21.89 83.22,-21.89zm0 27.99c-23.77,0 -46.95,6.12 -69.45,18.28 -22.48,12.16 -40.09,29.62 -52.78,52.25 -12.69,22.65 -19.05,46.21 -19.05,70.68 0,24.41 6.27,47.73 18.75,70.07 12.46,22.33 29.9,39.79 52.31,52.25 22.42,12.48 45.83,18.75 70.21,18.75 24.32,0 47.73,-6.27 70.15,-18.75 22.42,-12.46 39.85,-29.92 52.25,-52.25 12.39,-22.33 18.58,-45.66 18.58,-70.07 0,-24.47 -6.33,-48.03 -18.96,-70.68 -12.63,-22.63 -30.21,-40.09 -52.78,-52.25 -22.56,-12.16 -45.68,-18.28 -69.24,-18.28zm-74.26 234.54l0 -181.74 62.57 0c21.42,0 36.87,1.67 46.42,5.04 9.64,3.37 17.23,9.17 22.97,17.59 5.66,8.35 8.47,17.23 8.47,26.63 0,13.22 -4.75,24.85 -14.3,34.64 -9.49,9.87 -22.1,15.38 -37.86,16.61 6.42,2.67 11.63,5.89 15.45,9.62 7.35,7.12 16.29,19.13 26.93,36.04l22.18 35.57 -35.64 0 -16.23 -28.62c-12.69,-22.56 -23.01,-36.7 -30.83,-42.37 -5.34,-4.13 -13.16,-6.19 -23.48,-6.1l-17.29 0 0 77.1 -29.37 0zm29.37 -102.36l35.64 0c17.08,0 28.69,-2.52 34.9,-7.56 6.19,-5.06 9.32,-11.78 9.32,-20.04 0,-5.36 -1.53,-10.17 -4.51,-14.39 -2.99,-4.28 -7.12,-7.42 -12.39,-9.49 -5.34,-2.06 -15.13,-3.14 -29.51,-3.14l-33.43 0 0 54.62z"/>
 </g>
</svg>
